<?xml version="1.0" encoding="UTF-8" standalone="no"?>
<!-- Created with Inkscape (http://www.inkscape.org/) -->

<svg
   xmlns:dc="http://purl.org/dc/elements/1.1/"
   xmlns:cc="http://creativecommons.org/ns#"
   xmlns:rdf="http://www.w3.org/1999/02/22-rdf-syntax-ns#"
   xmlns:svg="http://www.w3.org/2000/svg"
   xmlns="http://www.w3.org/2000/svg"
   xmlns:sodipodi="http://sodipodi.sourceforge.net/DTD/sodipodi-0.dtd"
   xmlns:inkscape="http://www.inkscape.org/namespaces/inkscape"
   width="74mm"
   height="20mm"
   viewBox="0 0 74 20"
   version="1.1"
   id="svg862"
   inkscape:version="0.92.4 (5da689c313, 2019-01-14)"
   sodipodi:docname="nattsu.svg">
  <defs
     id="defs856" />
  <sodipodi:namedview
     id="base"
     pagecolor="#ffffff"
     bordercolor="#666666"
     borderopacity="1.0"
     inkscape:pageopacity="0.0"
     inkscape:pageshadow="2"
     inkscape:zoom="3.1245281"
     inkscape:cx="139.7398"
     inkscape:cy="13.761812"
     inkscape:document-units="mm"
     inkscape:current-layer="layer1"
     showgrid="false"
     height="51mm"
     inkscape:window-width="1620"
     inkscape:window-height="1017"
     inkscape:window-x="1276"
     inkscape:window-y="-4"
     inkscape:window-maximized="1" />
  <metadata
     id="metadata859">
    <rdf:RDF>
      <cc:Work
         rdf:about="">
        <dc:format>image/svg+xml</dc:format>
        <dc:type
           rdf:resource="http://purl.org/dc/dcmitype/StillImage" />
        <dc:title></dc:title>
      </cc:Work>
    </rdf:RDF>
  </metadata>
  <g
     inkscape:label="レイヤー 1"
     inkscape:groupmode="layer"
     id="layer1"
     transform="translate(0,-277)">
    <g
       aria-label="Nattsu."
       style="font-style:normal;font-variant:normal;font-weight:normal;font-stretch:normal;font-size:19.58529282px;line-height:1.25;font-family:sans-serif;-inkscape-font-specification:'sans-serif, Normal';font-variant-ligatures:normal;font-variant-caps:normal;font-variant-numeric:normal;font-feature-settings:normal;text-align:start;letter-spacing:0px;word-spacing:0px;writing-mode:lr-tb;text-anchor:start;fill:#ffffff;fill-opacity:1;stroke:none;stroke-width:0.73444843"
       id="text839">
      <path
         d="m 2.4111713,280.57696 v 13.72922 h 3.3490695 v -8.22578 l 6.2280942,8.22578 h 3.133632 v -13.72922 h -3.329484 v 8.26495 l -6.2280943,-8.26495 z"
         style="font-style:normal;font-variant:normal;font-weight:bold;font-stretch:normal;font-size:19.58520126px;font-family:Montserrat;-inkscape-font-specification:'Montserrat, Bold';font-variant-ligatures:normal;font-variant-caps:normal;font-variant-numeric:normal;font-feature-settings:normal;text-align:start;writing-mode:lr-tb;text-anchor:start;fill:#ffffff;stroke-width:0.73444843"
         id="path1573" />
      <path
         d="m 22.567404,283.57349 c -1.743083,0 -3.270729,0.41129 -4.935471,1.15553 l 0.959675,2.35022 c 1.135942,-0.54838 2.291468,-0.84216 3.172803,-0.84216 1.331793,0 2.017275,0.58756 2.017275,1.5864 v 0.11751 h -2.761513 c -2.624417,0.0392 -4.054137,1.1947 -4.054137,3.21198 0,1.93893 1.351379,3.30989 3.623262,3.30989 1.42972,0 2.506906,-0.47004 3.192388,-1.35137 v 1.19469 h 3.42741 v -6.89399 c -0.01958,-2.42856 -1.723497,-3.8387 -4.641692,-3.8387 z m -0.900919,8.51957 c -0.90092,0 -1.42972,-0.47005 -1.42972,-1.1947 0,-0.74424 0.48963,-1.09677 1.46889,-1.09677 h 2.076031 v 0.9205 c -0.215437,0.80299 -1.077186,1.37097 -2.115201,1.37097 z"
         style="font-style:normal;font-variant:normal;font-weight:bold;font-stretch:normal;font-size:19.58520126px;font-family:Montserrat;-inkscape-font-specification:'Montserrat, Bold';font-variant-ligatures:normal;font-variant-caps:normal;font-variant-numeric:normal;font-feature-settings:normal;text-align:start;writing-mode:lr-tb;text-anchor:start;fill:#ffffff;stroke-width:0.73444843"
         id="path1575" />
      <path
         d="m 35.798432,291.29006 c -0.509216,0.21544 -0.959675,0.35254 -1.312209,0.35254 -0.607141,0.0196 -0.959675,-0.33295 -0.959675,-1.11636 v -3.99538 h 2.741929 v -2.31106 h -2.741929 v -2.93778 h -3.46658 v 2.93778 h -1.46889 v 2.31106 h 1.46889 v 4.54376 c 0,2.19355 1.488475,3.40783 3.544921,3.38824 1.038016,0 2.095617,-0.2546 2.85944,-0.70506 z"
         style="font-style:normal;font-variant:normal;font-weight:bold;font-stretch:normal;font-size:19.58520126px;font-family:Montserrat;-inkscape-font-specification:'Montserrat, Bold';font-variant-ligatures:normal;font-variant-caps:normal;font-variant-numeric:normal;font-feature-settings:normal;text-align:start;writing-mode:lr-tb;text-anchor:start;fill:#ffffff;stroke-width:0.73444843"
         id="path1577" />
      <path
         d="m 44.366957,291.29006 c -0.509215,0.21544 -0.959675,0.35254 -1.312208,0.35254 -0.607142,0.0196 -0.959675,-0.33295 -0.959675,-1.11636 v -3.99538 h 2.741928 v -2.31106 h -2.741928 v -2.93778 h -3.466581 v 2.93778 h -1.46889 v 2.31106 h 1.46889 v 4.54376 c 0,2.19355 1.488475,3.40783 3.544921,3.38824 1.038016,0 2.095617,-0.2546 2.85944,-0.70506 z"
         style="font-style:normal;font-variant:normal;font-weight:bold;font-stretch:normal;font-size:19.58520126px;font-family:Montserrat;-inkscape-font-specification:'Montserrat, Bold';font-variant-ligatures:normal;font-variant-caps:normal;font-variant-numeric:normal;font-feature-settings:normal;text-align:start;writing-mode:lr-tb;text-anchor:start;fill:#ffffff;stroke-width:0.73444843"
         id="path1579" />
      <path
         d="m 53.777648,287.05966 1.175112,-2.27188 c -1.331794,-0.803 -2.879025,-1.23387 -4.40667,-1.23387 -2.487321,0 -4.347915,1.21428 -4.347915,3.42741 0,3.66243 5.464271,2.93778 5.464271,4.38708 0,0.43088 -0.470045,0.64631 -1.116356,0.64631 -1.175112,0 -2.546077,-0.47004 -3.760359,-1.3122 l -1.096771,2.25229 c 1.292623,0.99885 2.996536,1.50806 4.778789,1.50806 2.585246,0 4.485011,-1.23386 4.485011,-3.40782 0.01958,-3.68202 -5.542612,-3.01612 -5.542612,-4.40667 0,-0.45046 0.411289,-0.6659 0.998845,-0.6659 0.861749,0 2.056446,0.39171 3.368655,1.07719 z"
         style="font-style:normal;font-variant:normal;font-weight:bold;font-stretch:normal;font-size:19.58520126px;font-family:Montserrat;-inkscape-font-specification:'Montserrat, Bold';font-variant-ligatures:normal;font-variant-caps:normal;font-variant-numeric:normal;font-feature-settings:normal;text-align:start;writing-mode:lr-tb;text-anchor:start;fill:#ffffff;stroke-width:0.73444843"
         id="path1581" />
      <path
         d="m 63.699082,283.71059 v 5.22925 c 0,1.39055 -0.744238,2.36981 -1.978105,2.38939 -1.038016,0 -1.703913,-0.72465 -1.703913,-1.91935 v -5.69929 h -3.486166 v 6.69814 c 0,2.46773 1.488476,4.05413 3.779944,4.05413 1.508061,-0.0196 2.663588,-0.64631 3.38824,-1.88017 v 1.72349 h 3.486166 v -10.59559 z"
         style="font-style:normal;font-variant:normal;font-weight:bold;font-stretch:normal;font-size:19.58520126px;font-family:Montserrat;-inkscape-font-specification:'Montserrat, Bold';font-variant-ligatures:normal;font-variant-caps:normal;font-variant-numeric:normal;font-feature-settings:normal;text-align:start;writing-mode:lr-tb;text-anchor:start;fill:#ffffff;stroke-width:0.73444843"
         id="path1583" />
      <path
         d="m 70.907661,291.07462 c -0.97926,0 -1.664742,0.68549 -1.664742,1.68433 0,0.99885 0.685482,1.70391 1.664742,1.70391 0.97926,0 1.684327,-0.70506 1.684327,-1.70391 0,-0.99884 -0.705067,-1.68433 -1.684327,-1.68433 z"
         style="font-style:normal;font-variant:normal;font-weight:bold;font-stretch:normal;font-size:19.58520126px;font-family:Montserrat;-inkscape-font-specification:'Montserrat, Bold';font-variant-ligatures:normal;font-variant-caps:normal;font-variant-numeric:normal;font-feature-settings:normal;text-align:start;writing-mode:lr-tb;text-anchor:start;fill:#ffffff;stroke-width:0.73444843"
         id="path1585" />
    </g>
    <g
       aria-label="Nattsu."
       style="font-style:normal;font-variant:normal;font-weight:normal;font-stretch:normal;font-size:19.58529282px;line-height:1.25;font-family:sans-serif;-inkscape-font-specification:'sans-serif, Normal';font-variant-ligatures:normal;font-variant-caps:normal;font-variant-numeric:normal;font-feature-settings:normal;text-align:start;letter-spacing:0px;word-spacing:0px;writing-mode:lr-tb;text-anchor:start;fill:#333333;fill-opacity:1;stroke:none;stroke-width:0.73444843"
       id="text839-2">
      <path
         d="m 1.5691782,279.92 v 13.72923 h 3.3490694 v -8.22578 l 6.2280944,8.22578 h 3.133632 V 279.92 H 10.95049 v 8.26496 L 4.7223956,279.92 Z"
         style="font-style:normal;font-variant:normal;font-weight:bold;font-stretch:normal;font-size:19.58520126px;font-family:Montserrat;-inkscape-font-specification:'Montserrat, Bold';font-variant-ligatures:normal;font-variant-caps:normal;font-variant-numeric:normal;font-feature-settings:normal;text-align:start;writing-mode:lr-tb;text-anchor:start;stroke-width:0.73444843;fill:#333333;fill-opacity:1"
         id="path1558" />
      <path
         d="m 21.725411,282.91654 c -1.743083,0 -3.270729,0.41129 -4.935471,1.15553 l 0.959675,2.35022 c 1.135941,-0.54838 2.291468,-0.84216 3.172802,-0.84216 1.331794,0 2.017276,0.58755 2.017276,1.5864 v 0.11751 H 20.17818 c -2.624417,0.0392 -4.054137,1.1947 -4.054137,3.21197 0,1.93894 1.351379,3.3099 3.623262,3.3099 1.42972,0 2.506906,-0.47004 3.192388,-1.35138 v 1.1947 h 3.42741 v -6.89399 c -0.01958,-2.42856 -1.723497,-3.8387 -4.641692,-3.8387 z m -0.90092,8.51956 c -0.900919,0 -1.429719,-0.47004 -1.429719,-1.19469 0,-0.74424 0.48963,-1.09678 1.46889,-1.09678 h 2.076031 v 0.92051 c -0.215437,0.80299 -1.077186,1.37096 -2.115202,1.37096 z"
         style="font-style:normal;font-variant:normal;font-weight:bold;font-stretch:normal;font-size:19.58520126px;font-family:Montserrat;-inkscape-font-specification:'Montserrat, Bold';font-variant-ligatures:normal;font-variant-caps:normal;font-variant-numeric:normal;font-feature-settings:normal;text-align:start;writing-mode:lr-tb;text-anchor:start;stroke-width:0.73444843;fill:#333333;fill-opacity:1"
         id="path1560" />
      <path
         d="m 34.956439,290.63311 c -0.509216,0.21544 -0.959675,0.35253 -1.312209,0.35253 -0.607141,0.0196 -0.959675,-0.33294 -0.959675,-1.11635 v -3.99538 h 2.741928 v -2.31106 h -2.741928 v -2.93778 h -3.46658 v 2.93778 h -1.468891 v 2.31106 h 1.468891 v 4.54376 c 0,2.19355 1.488475,3.40783 3.544921,3.38824 1.038016,0 2.095617,-0.25461 2.859439,-0.70506 z"
         style="font-style:normal;font-variant:normal;font-weight:bold;font-stretch:normal;font-size:19.58520126px;font-family:Montserrat;-inkscape-font-specification:'Montserrat, Bold';font-variant-ligatures:normal;font-variant-caps:normal;font-variant-numeric:normal;font-feature-settings:normal;text-align:start;writing-mode:lr-tb;text-anchor:start;stroke-width:0.73444843;fill:#333333;fill-opacity:1"
         id="path1562" />
      <path
         d="m 43.524964,290.63311 c -0.509215,0.21544 -0.959675,0.35253 -1.312209,0.35253 -0.607141,0.0196 -0.959675,-0.33294 -0.959675,-1.11635 v -3.99538 h 2.741929 v -2.31106 H 41.25308 v -2.93778 H 37.7865 v 2.93778 h -1.46889 v 2.31106 h 1.46889 v 4.54376 c 0,2.19355 1.488475,3.40783 3.544921,3.38824 1.038016,0 2.095617,-0.25461 2.85944,-0.70506 z"
         style="font-style:normal;font-variant:normal;font-weight:bold;font-stretch:normal;font-size:19.58520126px;font-family:Montserrat;-inkscape-font-specification:'Montserrat, Bold';font-variant-ligatures:normal;font-variant-caps:normal;font-variant-numeric:normal;font-feature-settings:normal;text-align:start;writing-mode:lr-tb;text-anchor:start;stroke-width:0.73444843;fill:#333333;fill-opacity:1"
         id="path1564" />
      <path
         d="m 52.935655,286.40271 1.175112,-2.27189 c -1.331794,-0.80299 -2.879025,-1.23386 -4.406671,-1.23386 -2.48732,0 -4.347914,1.21428 -4.347914,3.42741 0,3.66243 5.464271,2.93778 5.464271,4.38708 0,0.43088 -0.470045,0.64631 -1.116357,0.64631 -1.175112,0 -2.546076,-0.47004 -3.760358,-1.31221 l -1.096771,2.2523 c 1.292623,0.99885 2.996535,1.50806 4.778789,1.50806 2.585246,0 4.485011,-1.23387 4.485011,-3.40782 0.01958,-3.68202 -5.542612,-3.01612 -5.542612,-4.40667 0,-0.45046 0.411289,-0.6659 0.998845,-0.6659 0.861749,0 2.056446,0.3917 3.368655,1.07719 z"
         style="font-style:normal;font-variant:normal;font-weight:bold;font-stretch:normal;font-size:19.58520126px;font-family:Montserrat;-inkscape-font-specification:'Montserrat, Bold';font-variant-ligatures:normal;font-variant-caps:normal;font-variant-numeric:normal;font-feature-settings:normal;text-align:start;writing-mode:lr-tb;text-anchor:start;stroke-width:0.73444843;fill:#333333;fill-opacity:1"
         id="path1566" />
      <path
         d="m 62.857089,283.05364 v 5.22925 c 0,1.39055 -0.744238,2.36981 -1.978106,2.38939 -1.038015,0 -1.703912,-0.72465 -1.703912,-1.91935 v -5.69929 h -3.486166 v 6.69814 c 0,2.46773 1.488475,4.05413 3.779944,4.05413 1.508061,-0.0196 2.663587,-0.64631 3.38824,-1.88018 v 1.7235 h 3.486166 v -10.59559 z"
         style="font-style:normal;font-variant:normal;font-weight:bold;font-stretch:normal;font-size:19.58520126px;font-family:Montserrat;-inkscape-font-specification:'Montserrat, Bold';font-variant-ligatures:normal;font-variant-caps:normal;font-variant-numeric:normal;font-feature-settings:normal;text-align:start;writing-mode:lr-tb;text-anchor:start;stroke-width:0.73444843;fill:#333333;fill-opacity:1"
         id="path1568" />
      <path
         d="m 70.065668,290.41767 c -0.97926,0 -1.664743,0.68548 -1.664743,1.68433 0,0.99885 0.685483,1.70391 1.664743,1.70391 0.97926,0 1.684327,-0.70506 1.684327,-1.70391 0,-0.99885 -0.705067,-1.68433 -1.684327,-1.68433 z"
         style="font-style:normal;font-variant:normal;font-weight:bold;font-stretch:normal;font-size:19.58520126px;font-family:Montserrat;-inkscape-font-specification:'Montserrat, Bold';font-variant-ligatures:normal;font-variant-caps:normal;font-variant-numeric:normal;font-feature-settings:normal;text-align:start;writing-mode:lr-tb;text-anchor:start;stroke-width:0.73444843;fill:#333333;fill-opacity:1"
         id="path1570" />
    </g>
  </g>
</svg>
